<svg width="3159" height="975" viewBox="0 0 3159 975" fill="none" xmlns="http://www.w3.org/2000/svg">
<path d="M921.27 439.766C929.928 427.917 940.182 417.435 952.031 408.32C964.336 399.206 977.324 392.142 990.996 387.129C1004.67 381.66 1018.8 378.926 1033.38 378.926C1047.96 378.47 1062.55 381.204 1077.13 387.129C1091.26 392.598 1104.02 400.117 1115.41 409.688C1126.8 418.802 1135.69 430.651 1142.07 445.234C1147.08 456.172 1150.05 468.021 1150.96 480.781C1151.87 493.542 1148.45 505.163 1140.7 515.645C1133.87 525.215 1125.44 532.507 1115.41 537.52C1105.84 542.533 1095.36 546.178 1083.96 548.457C1073.03 550.736 1061.63 551.875 1049.79 551.875C1038.39 551.875 1027.45 551.647 1016.97 551.191C1005.12 550.736 993.275 549.824 981.426 548.457C970.033 547.09 958.411 545.723 946.562 544.355C950.208 564.863 957.5 583.092 968.438 599.043C979.375 614.993 994.186 627.07 1012.87 635.273C1017.88 637.096 1021.76 638.464 1024.49 639.375C1025.86 639.831 1027 640.286 1027.91 640.742C1029.28 640.742 1030.64 640.742 1032.01 640.742C1035.66 641.198 1038.62 641.654 1040.9 642.109C1043.63 642.109 1046.14 641.882 1048.42 641.426C1051.61 640.97 1053.66 640.742 1054.57 640.742C1055.94 640.286 1057.3 639.831 1058.67 639.375C1063.68 638.008 1068.01 636.413 1071.66 634.59C1075.76 632.767 1080.55 629.805 1086.02 625.703C1088.75 623.424 1092.4 620.007 1096.95 615.449C1101.51 610.892 1105.38 606.79 1108.57 603.145C1113.13 596.764 1118.6 592.435 1124.98 590.156C1131.82 587.878 1138.65 588.789 1145.49 592.891C1151.41 596.536 1155.51 602.233 1157.79 609.98C1160.53 617.272 1159.62 624.108 1155.06 630.488C1141.84 648.262 1126.12 663.529 1107.89 676.289C1090.12 688.594 1069.61 695.202 1046.37 696.113C1027.68 697.025 1009.68 693.835 992.363 686.543C975.046 678.796 959.779 668.542 946.562 655.781C930.156 639.831 917.168 621.374 907.598 600.41C898.027 579.447 892.786 558.027 891.875 536.152C887.773 532.962 884.583 529.089 882.305 524.531C880.482 519.518 879.798 514.505 880.254 509.492C881.165 504.479 882.988 499.922 885.723 495.82C888.457 491.263 892.559 488.301 898.027 486.934C903.04 470.072 910.788 454.349 921.27 439.766ZM1085.33 456.172C1080.32 449.792 1072.57 444.095 1062.09 439.082C1053.43 435.436 1043.18 433.613 1031.33 433.613C1019.93 433.613 1010.14 435.664 1001.93 439.766C991.452 444.779 982.109 451.842 973.906 460.957C965.703 469.616 959.095 479.414 954.082 490.352C965.02 491.719 975.957 493.086 986.895 494.453C997.832 495.82 1008.77 496.732 1019.71 497.188C1025.63 497.188 1031.56 497.188 1037.48 497.188C1043.4 497.188 1049.33 496.96 1055.25 496.504C1057.08 496.504 1058.67 496.504 1060.04 496.504C1061.86 496.048 1063.68 495.82 1065.51 495.82C1069.61 494.909 1072.57 494.453 1074.39 494.453C1076.67 493.997 1078.95 493.314 1081.23 492.402C1083.05 491.947 1085.33 491.263 1088.07 490.352C1090.35 489.44 1091.71 488.757 1092.17 488.301C1092.62 487.845 1093.31 487.389 1094.22 486.934L1096.27 478.73C1095.36 476.908 1094.67 475.312 1094.22 473.945C1094.22 472.122 1093.76 470.527 1092.85 469.16C1092.4 467.793 1091.26 465.742 1089.43 463.008C1088.07 460.273 1086.7 457.995 1085.33 456.172ZM1250.08 168.379C1258.28 168.379 1264.66 171.113 1269.22 176.582C1273.78 182.051 1276.51 188.431 1277.42 195.723C1281.98 239.017 1284.49 282.311 1284.94 325.605C1285.4 368.9 1284.71 412.194 1282.89 455.488C1281.52 498.783 1279.24 542.077 1276.05 585.371C1272.86 628.665 1269.67 671.732 1266.48 714.57C1265.57 722.318 1262.61 728.698 1257.6 733.711C1253.04 739.18 1246.89 741.914 1239.14 741.914C1232.3 741.914 1225.92 739.18 1220 733.711C1214.08 728.698 1211.34 722.318 1211.8 714.57C1214.99 671.732 1218.18 628.665 1221.37 585.371C1225.01 542.077 1227.52 498.783 1228.89 455.488C1230.71 412.194 1231.39 368.9 1230.94 325.605C1230.48 282.311 1227.98 239.017 1223.42 195.723C1222.51 188.431 1225.01 182.051 1230.94 176.582C1236.86 171.113 1243.24 168.379 1250.08 168.379ZM1397.05 168.379C1405.25 168.379 1411.63 171.113 1416.19 176.582C1420.75 182.051 1423.48 188.431 1424.39 195.723C1428.95 239.017 1431.46 282.311 1431.91 325.605C1432.37 368.9 1431.69 412.194 1429.86 455.488C1428.5 498.783 1426.22 542.077 1423.03 585.371C1419.84 628.665 1416.65 671.732 1413.46 714.57C1412.55 722.318 1409.58 728.698 1404.57 733.711C1400.01 739.18 1393.86 741.914 1386.11 741.914C1379.28 741.914 1372.9 739.18 1366.97 733.711C1361.05 728.698 1358.31 722.318 1358.77 714.57C1361.96 671.732 1365.15 628.665 1368.34 585.371C1371.99 542.077 1374.49 498.783 1375.86 455.488C1377.68 412.194 1378.37 368.9 1377.91 325.605C1377.45 282.311 1374.95 239.017 1370.39 195.723C1369.48 188.431 1371.99 182.051 1377.91 176.582C1383.83 171.113 1390.21 168.379 1397.05 168.379ZM1503.01 698.164C1506.65 676.289 1510.76 654.87 1515.31 633.906C1520.33 612.487 1523.97 590.84 1526.25 568.965C1528.07 547.546 1528.3 526.582 1526.93 506.074C1526.02 485.111 1527.39 463.919 1531.04 442.5C1531.95 435.208 1536.05 429.74 1543.34 426.094C1551.09 422.448 1558.15 421.536 1564.53 423.359C1572.28 425.638 1577.52 429.967 1580.25 436.348C1583.44 442.728 1584.58 449.564 1583.67 456.855C1581.85 467.337 1580.94 478.047 1580.94 488.984C1581.39 499.922 1581.85 510.859 1582.3 521.797C1582.3 542.76 1580.94 563.724 1578.2 584.688C1575.47 606.562 1571.82 627.982 1567.27 648.945C1563.16 669.909 1559.29 691.1 1555.64 712.52C1554.28 719.811 1549.95 725.28 1542.66 728.926C1535.36 732.572 1528.53 733.483 1522.15 731.66C1514.4 729.382 1508.93 725.052 1505.74 718.672C1502.55 712.292 1501.64 705.456 1503.01 698.164ZM1535.82 383.711C1532.63 382.799 1529.44 381.432 1526.25 379.609C1523.06 377.331 1520.78 374.596 1519.41 371.406C1518.05 367.76 1516.91 364.57 1516 361.836C1515.08 359.102 1514.63 355.911 1514.63 352.266C1514.63 348.164 1515.31 344.062 1516.68 339.961C1518.5 331.758 1522.15 325.833 1527.62 322.188C1529.44 319.453 1531.95 317.402 1535.14 316.035C1540.15 312.845 1545.85 311.25 1552.23 311.25C1558.61 310.794 1564.3 312.389 1569.32 316.035C1571.6 317.858 1573.87 319.909 1576.15 322.188C1578.43 324.01 1580.25 326.517 1581.62 329.707C1582.53 331.986 1583.44 334.492 1584.36 337.227C1585.72 339.961 1586.18 342.695 1585.72 345.43C1585.27 348.62 1584.81 351.582 1584.36 354.316C1583.9 357.051 1582.76 359.557 1580.94 361.836C1578.66 365.026 1576.84 367.305 1575.47 368.672C1574.1 370.039 1571.82 371.862 1568.63 374.141C1566.81 375.964 1564.08 377.331 1560.43 378.242C1550.86 383.711 1542.66 385.534 1535.82 383.711ZM1663.65 639.375C1663.65 619.779 1665.02 599.954 1667.75 579.902C1670.94 555.749 1674.13 531.823 1677.32 508.125C1680.51 483.971 1681.88 459.59 1681.43 434.98C1681.43 426.322 1684.16 419.714 1689.63 415.156C1695.1 410.599 1701.25 408.32 1708.09 408.32C1714.92 408.32 1721.3 410.599 1727.23 415.156C1733.15 419.714 1736.11 426.322 1736.11 434.98C1753.89 433.613 1770.75 432.93 1786.7 432.93C1804.93 433.385 1820.42 438.626 1833.18 448.652C1845.94 458.678 1855.51 472.122 1861.89 488.984C1867.36 504.479 1870.55 520.43 1871.46 536.836C1872.38 553.242 1873.06 569.648 1873.52 586.055C1873.97 609.297 1874.65 632.539 1875.57 655.781C1876.48 678.568 1876.93 701.582 1876.93 724.824C1876.93 733.939 1873.97 740.547 1868.05 744.648C1862.58 749.206 1856.43 751.484 1849.59 751.484C1843.21 751.484 1837.06 749.206 1831.13 744.648C1825.66 740.547 1822.93 733.939 1822.93 724.824C1822.93 702.949 1822.47 681.53 1821.56 660.566C1821.11 639.603 1820.42 618.184 1819.51 596.309C1818.6 584.46 1818.14 572.383 1818.14 560.078C1818.6 547.318 1817.69 535.697 1815.41 525.215C1814.04 518.835 1812.68 513.366 1811.31 508.809C1809.94 503.796 1807.43 499.01 1803.79 494.453C1802.88 492.63 1800.83 491.035 1797.64 489.668C1794.9 488.301 1792.4 487.617 1790.12 487.617C1783.28 487.617 1776.9 488.073 1770.98 488.984C1765.05 489.896 1758.9 491.263 1752.52 493.086C1749.79 493.997 1747.05 494.909 1744.32 495.82C1741.58 496.732 1739.08 497.871 1736.8 499.238C1732.24 515.645 1728.82 531.367 1726.54 546.406C1724.72 560.99 1722.9 575.801 1721.07 590.84C1719.71 601.777 1718.8 612.943 1718.34 624.336C1718.34 635.273 1717.88 646.211 1716.97 657.148C1716.52 668.086 1715.15 679.023 1712.87 689.961C1711.05 700.898 1707.63 711.38 1702.62 721.406C1698.52 729.154 1693.05 733.483 1686.21 734.395C1679.38 735.762 1672.99 734.622 1667.07 730.977C1661.6 727.786 1657.27 722.773 1654.08 715.938C1651.35 709.102 1651.8 701.81 1655.45 694.062C1659.55 685.859 1661.83 676.973 1662.29 667.402C1662.74 657.832 1663.2 648.49 1663.65 639.375ZM1974.69 305.781C1979.24 276.615 1989.5 249.727 2005.45 225.117C2021.86 200.508 2041.68 179.316 2064.92 161.543C2078.14 151.061 2092.04 144.453 2106.62 141.719C2121.2 138.984 2136.24 141.947 2151.74 150.605C2163.59 157.441 2175.44 164.733 2187.29 172.48C2199.59 180.228 2209.16 190.254 2216 202.559C2220.55 210.306 2221.46 217.598 2218.73 224.434C2216 230.814 2211.67 235.827 2205.74 239.473C2199.82 242.663 2193.21 243.802 2185.92 242.891C2179.08 241.979 2173.61 237.65 2169.51 229.902C2167.23 225.801 2164.04 222.383 2159.94 219.648C2155.84 216.458 2151.97 213.724 2148.32 211.445C2144.22 209.167 2139.66 206.204 2134.65 202.559C2129.64 198.913 2124.62 196.634 2119.61 195.723C2115.51 194.355 2111.41 194.811 2107.3 197.09C2103.2 198.913 2099.1 201.647 2095 205.293C2091.35 208.483 2087.71 212.129 2084.06 216.23C2080.87 219.876 2077.91 223.066 2075.18 225.801C2058.77 243.118 2046.24 261.803 2037.58 281.855C2029.38 301.908 2025.5 324.01 2025.96 348.164C2026.41 364.57 2027.78 380.977 2030.06 397.383C2043.27 396.471 2056.49 395.56 2069.71 394.648C2083.38 393.737 2096.82 392.826 2110.04 391.914C2117.79 391.003 2124.17 393.509 2129.18 399.434C2134.65 405.358 2137.38 411.966 2137.38 419.258C2137.38 427.005 2134.65 433.385 2129.18 438.398C2124.17 442.956 2117.79 445.462 2110.04 445.918C2098.19 446.829 2086.11 447.741 2073.81 448.652C2061.96 449.564 2050.11 450.475 2038.26 451.387C2039.63 459.134 2041 466.882 2042.36 474.629C2043.73 482.376 2045.1 490.124 2046.46 497.871C2051.93 530.228 2057.4 562.129 2062.87 593.574C2068.8 625.02 2073.12 657.148 2075.86 689.961C2076.77 697.708 2074.26 704.089 2068.34 709.102C2062.42 714.57 2055.81 717.305 2048.52 717.305C2040.77 717.305 2034.39 714.57 2029.38 709.102C2024.82 704.089 2022.08 697.708 2021.17 689.961C2018.44 653.503 2013.65 617.728 2006.82 582.637C1999.98 547.09 1993.6 511.543 1987.68 475.996C1986.76 472.35 1986.08 468.704 1985.62 465.059C1985.62 461.413 1985.17 457.767 1984.26 454.121C1971.04 455.033 1957.6 455.716 1943.93 456.172C1930.71 456.628 1917.27 456.855 1903.59 456.855C1894.93 456.855 1888.55 454.121 1884.45 448.652C1879.9 442.728 1877.62 436.348 1877.62 429.512C1877.62 422.676 1879.9 416.523 1884.45 411.055C1888.55 405.13 1894.93 402.168 1903.59 402.168C1927.75 402.168 1951.9 401.484 1976.05 400.117C1973.78 384.167 1972.41 368.444 1971.95 352.949C1971.5 337.454 1972.41 321.732 1974.69 305.781ZM2219.41 686.543C2203.92 679.707 2191.61 670.365 2182.5 658.516C2173.84 646.211 2167.69 632.767 2164.04 618.184C2160.85 603.6 2159.94 588.561 2161.31 573.066C2162.68 557.116 2165.87 541.849 2170.88 527.266C2174.98 515.872 2179.54 504.023 2184.55 491.719C2190.02 479.414 2196.4 468.021 2203.69 457.539C2210.98 447.057 2219.64 438.171 2229.67 430.879C2239.69 423.132 2251.54 418.118 2265.21 415.84C2279.34 413.561 2293.47 412.878 2307.6 413.789C2322.18 414.245 2336.54 415.612 2350.66 417.891C2357.04 418.802 2363.2 420.397 2369.12 422.676C2375.05 424.499 2380.97 426.549 2386.89 428.828C2387.35 421.992 2390.31 416.296 2395.78 411.738C2401.71 407.181 2407.86 404.902 2414.24 404.902C2421.99 404.902 2428.14 407.637 2432.7 413.105C2437.71 418.118 2440.67 424.271 2441.58 431.562C2443.86 452.526 2444.77 473.49 2444.32 494.453C2444.32 515.417 2443.63 536.38 2442.27 557.344C2441.35 578.307 2440.44 599.271 2439.53 620.234C2439.08 641.198 2439.3 662.161 2440.21 683.125C2440.67 691.784 2437.94 698.392 2432.01 702.949C2426.54 707.051 2420.39 709.102 2413.55 709.102C2406.72 709.102 2400.34 707.051 2394.41 702.949C2388.95 698.392 2385.98 691.784 2385.53 683.125C2359.55 694.062 2331.98 700.443 2302.81 702.266C2273.65 703.633 2245.85 698.392 2219.41 686.543ZM2224.2 538.203C2221.46 546.406 2218.96 555.749 2216.68 566.23C2214.4 576.712 2213.72 586.738 2214.63 596.309C2215.54 605.879 2218.5 614.766 2223.52 622.969C2228.53 630.716 2236.73 636.185 2248.12 639.375C2271.37 646.667 2294.61 648.717 2317.85 645.527C2341.55 642.337 2363.65 634.134 2384.16 620.918C2385.98 598.587 2387.35 576.94 2388.26 555.977C2389.63 535.013 2390.08 513.822 2389.63 492.402C2381.88 487.389 2373.91 483.06 2365.7 479.414C2357.96 475.312 2349.3 472.578 2339.73 471.211C2330.16 469.844 2319.9 468.932 2308.96 468.477C2298.48 467.565 2288.23 467.565 2278.2 468.477C2277.29 468.477 2274.79 469.16 2270.68 470.527C2267.04 471.439 2264.99 472.122 2264.53 472.578C2259.97 474.857 2255.87 478.503 2252.23 483.516C2246.3 491.719 2241.06 500.605 2236.5 510.176C2231.95 519.29 2227.85 528.633 2224.2 538.203ZM2514.73 639.375C2514.73 619.779 2516.09 599.954 2518.83 579.902C2522.02 555.749 2525.21 531.823 2528.4 508.125C2531.59 483.971 2532.96 459.59 2532.5 434.98C2532.5 426.322 2535.23 419.714 2540.7 415.156C2546.17 410.599 2552.32 408.32 2559.16 408.32C2566 408.32 2572.38 410.599 2578.3 415.156C2584.23 419.714 2587.19 426.322 2587.19 434.98C2604.96 433.613 2621.82 432.93 2637.77 432.93C2656 433.385 2671.5 438.626 2684.26 448.652C2697.02 458.678 2706.59 472.122 2712.97 488.984C2718.44 504.479 2721.63 520.43 2722.54 536.836C2723.45 553.242 2724.13 569.648 2724.59 586.055C2725.05 609.297 2725.73 632.539 2726.64 655.781C2727.55 678.568 2728.01 701.582 2728.01 724.824C2728.01 733.939 2725.05 740.547 2719.12 744.648C2713.65 749.206 2707.5 751.484 2700.66 751.484C2694.28 751.484 2688.13 749.206 2682.21 744.648C2676.74 740.547 2674 733.939 2674 724.824C2674 702.949 2673.55 681.53 2672.64 660.566C2672.18 639.603 2671.5 618.184 2670.59 596.309C2669.67 584.46 2669.22 572.383 2669.22 560.078C2669.67 547.318 2668.76 535.697 2666.48 525.215C2665.12 518.835 2663.75 513.366 2662.38 508.809C2661.02 503.796 2658.51 499.01 2654.86 494.453C2653.95 492.63 2651.9 491.035 2648.71 489.668C2645.98 488.301 2643.47 487.617 2641.19 487.617C2634.36 487.617 2627.98 488.073 2622.05 488.984C2616.13 489.896 2609.97 491.263 2603.59 493.086C2600.86 493.997 2598.12 494.909 2595.39 495.82C2592.66 496.732 2590.15 497.871 2587.87 499.238C2583.31 515.645 2579.9 531.367 2577.62 546.406C2575.79 560.99 2573.97 575.801 2572.15 590.84C2570.78 601.777 2569.87 612.943 2569.41 624.336C2569.41 635.273 2568.96 646.211 2568.05 657.148C2567.59 668.086 2566.22 679.023 2563.95 689.961C2562.12 700.898 2558.7 711.38 2553.69 721.406C2549.59 729.154 2544.12 733.483 2537.29 734.395C2530.45 735.762 2524.07 734.622 2518.14 730.977C2512.68 727.786 2508.35 722.773 2505.16 715.938C2502.42 709.102 2502.88 701.81 2506.52 694.062C2510.62 685.859 2512.9 676.973 2513.36 667.402C2513.82 657.832 2514.27 648.49 2514.73 639.375ZM3002.13 466.426C3010.79 466.426 3017.17 469.16 3021.27 474.629C3025.83 480.098 3028.11 486.25 3028.11 493.086C3028.11 499.922 3025.83 506.302 3021.27 512.227C3017.17 517.695 3010.79 520.43 3002.13 520.43C2991.19 520.885 2980.25 520.885 2969.32 520.43C2958.83 519.518 2948.35 518.607 2937.87 517.695C2938.33 553.698 2937.64 589.701 2935.82 625.703C2934.45 661.706 2930.81 697.48 2924.88 733.027C2923.97 740.775 2919.87 746.471 2912.58 750.117C2905.29 753.763 2898.22 754.447 2891.39 752.168C2883.64 749.889 2878.17 745.56 2874.98 739.18C2872.25 733.255 2871.56 726.419 2872.93 718.672C2878.4 684.036 2881.36 649.401 2881.82 614.766C2882.73 580.13 2882.73 545.267 2881.82 510.176C2864.5 507.441 2846.95 504.707 2829.18 501.973C2811.41 498.783 2793.86 496.048 2776.54 493.77C2768.8 492.858 2763.33 488.757 2760.14 481.465C2756.49 473.717 2755.58 466.654 2757.4 460.273C2759.68 452.526 2764.01 447.285 2770.39 444.551C2776.77 441.361 2783.61 440.221 2790.9 441.133C2805.94 443.411 2820.98 445.918 2836.02 448.652C2851.05 450.931 2866.32 453.21 2881.82 455.488C2881.36 453.21 2881.13 449.792 2881.13 445.234C2881.13 404.219 2880.9 363.659 2880.45 323.555C2880.45 283.451 2882.5 242.891 2886.6 201.875C2887.51 194.583 2890.25 188.203 2894.8 182.734C2899.82 177.266 2906.2 174.531 2913.95 174.531C2920.78 174.531 2927.16 177.266 2933.09 182.734C2939.47 188.203 2942.2 194.583 2941.29 201.875C2936.73 245.625 2934.45 289.147 2934.45 332.441C2934.91 375.28 2935.59 418.802 2936.5 463.008C2947.44 463.919 2958.38 464.831 2969.32 465.742C2980.25 466.198 2991.19 466.426 3002.13 466.426Z" fill="black"/>
<g clip-path="url(#clip0)">
<path d="M728.993 322.493C723.612 325.567 716.552 323.64 713.483 318.265C695.148 286.188 669.185 260.752 634.104 240.488C568.112 202.375 510.22 202.611 473.566 209.352C489.348 226.191 498.566 239.578 499.157 240.441C502.693 245.621 501.362 252.687 496.183 256.228C491.003 259.77 483.931 258.44 480.384 253.26C479.568 252.072 397.593 134.313 304.869 166.33C259.074 182.135 226.986 215.016 209.496 264.051C192.875 310.655 190.155 371.374 201.637 439.655C209.472 486.247 233.389 530.889 267.263 562.132C271.875 566.389 272.171 573.579 267.914 578.191C263.716 582.744 256.408 583.04 251.855 578.842C214.35 544.246 187.872 494.892 179.222 443.427C169.017 382.738 169.578 327.318 180.7 281.322C130.11 286.289 93.3271 312.11 65.7617 361.677C62.7521 367.087 55.7218 369.103 50.3057 366.088C44.8186 363.037 42.8437 356.113 45.8947 350.632C78.6456 291.746 125.043 261.402 187.535 258.032C187.719 257.494 187.902 256.95 188.091 256.412C207.734 201.34 245.552 162.759 297.454 144.843C318.87 137.446 341.161 136.128 363.766 140.758C399.804 116.296 440.248 106.274 481.046 111.761C541.617 119.915 582.687 164.622 606.971 202.02C619.47 207.028 632.33 213.213 645.475 220.805C684.132 243.131 712.827 271.318 733.214 306.984C736.33 312.435 734.438 319.377 728.993 322.493V322.493ZM478.019 134.295C448.325 130.298 419.695 135.548 392.644 149.863C408.739 156.681 424.875 166.419 440.851 179.078C445.546 182.792 449.992 186.576 454.196 190.354C480.195 183.643 521.07 178.345 570.087 190.194C548.251 164.089 517.77 139.646 478.019 134.295Z" fill="black"/>
<path d="M656.35 458.478C656.35 471.14 646.432 481.053 633.777 481.053C621.116 481.053 611.204 471.14 611.204 458.478C611.204 445.821 621.116 435.908 633.777 435.908C646.438 435.908 656.35 445.821 656.35 458.478V458.478Z" fill="black"/>
<path d="M9.95689 445.348C14.7936 426.664 20.251 409.269 26.1757 393.635C28.4048 387.764 34.9621 384.807 40.8334 387.037C46.7048 389.26 49.6612 395.823 47.4321 401.688C41.7972 416.553 36.594 433.162 31.9584 451.048C0.821646 571.279 57.1054 715.941 82.7432 772.556C90.0633 788.71 106.276 799.146 124.05 799.146H145.572C166.557 799.146 184.686 784.914 189.658 764.532L197.759 731.35C199 726.259 203.559 722.682 208.798 722.682H368.638C373.877 722.682 378.442 726.259 379.677 731.35L387.778 764.532C392.756 784.914 410.885 799.146 431.863 799.146H451.192C469.954 799.146 487.006 787.367 493.64 769.842C510.06 726.43 524.393 681.996 534.486 648.914C503.52 644.29 467.636 632.447 429.812 607.199C416.538 614.75 402.684 620.065 388.28 623.022C379.506 624.825 370.619 625.724 361.679 625.724C337.827 625.724 313.655 619.338 290.589 606.815C285.073 603.817 283.027 596.917 286.025 591.4C289.022 585.883 295.923 583.844 301.439 586.835C359.958 618.623 420.481 603.001 467.494 543.98C471.349 539.131 478.616 538.309 483.464 542.164C488.307 546.025 489.135 553.292 485.274 558.135C474.24 571.994 462.557 583.731 450.305 593.375C494.699 621.005 540.848 632.524 587.689 627.634C626.382 623.589 651.175 609.227 651.393 609.097C659.352 604.361 669.599 611.06 668.487 620.237L651.92 756.928C649.608 776.009 661.906 793.682 680.531 798.052C691.163 800.529 702.468 798.389 711.302 791.932C719.237 786.132 724.623 777.387 726.243 767.696C759.071 572.189 760.691 441.972 731.346 357.887C729.276 351.956 732.404 345.476 738.335 343.412C744.259 341.343 750.74 344.47 752.809 350.395C768.295 394.776 775.544 449.428 774.97 517.473C774.385 586.451 765.776 669.532 748.664 771.456C745.939 787.699 736.555 802.315 722.914 811.551C708.936 821.029 691.754 824.027 675.346 820.178C645.415 813.165 625.643 784.795 629.356 754.191L643.482 637.632C631.071 642.374 613.214 647.69 591.26 650.108C581.303 651.208 569.986 651.734 557.557 651.167C547.311 684.994 532.274 731.965 514.903 777.883C504.951 804.195 479.349 821.874 451.198 821.874H431.869C400.378 821.874 373.167 800.512 365.699 769.919L359.716 745.41H217.726L211.742 769.919C204.275 800.512 177.064 821.874 145.578 821.874H124.056C97.3715 821.874 73.0285 806.2 62.0426 781.934C46.9768 748.668 26.2289 696.541 12.931 637.082C-3.24635 564.71 -4.25152 500.201 9.95689 445.348V445.348Z" fill="black"/>
</g>
<defs>
<clipPath id="clip0">
<rect width="775" height="775" transform="matrix(-1 0 0 1 775 77)" fill="white"/>
</clipPath>
</defs>
</svg>
