<svg width="3299" height="952" viewBox="0 0 3299 952" fill="none" xmlns="http://www.w3.org/2000/svg">
<path d="M1171.56 425.766C1180.22 413.917 1190.47 403.435 1202.32 394.32C1214.62 385.206 1227.61 378.142 1241.29 373.129C1254.96 367.66 1269.08 364.926 1283.67 364.926C1298.25 364.47 1312.83 367.204 1327.42 373.129C1341.55 378.598 1354.31 386.117 1365.7 395.688C1377.09 404.802 1385.98 416.651 1392.36 431.234C1397.37 442.172 1400.33 454.021 1401.25 466.781C1402.16 479.542 1398.74 491.163 1390.99 501.645C1384.16 511.215 1375.73 518.507 1365.7 523.52C1356.13 528.533 1345.65 532.178 1334.25 534.457C1323.32 536.736 1311.92 537.875 1300.07 537.875C1288.68 537.875 1277.74 537.647 1267.26 537.191C1255.41 536.736 1243.56 535.824 1231.71 534.457C1220.32 533.09 1208.7 531.723 1196.85 530.355C1200.5 550.863 1207.79 569.092 1218.73 585.043C1229.66 600.993 1244.48 613.07 1263.16 621.273C1268.17 623.096 1272.05 624.464 1274.78 625.375C1276.15 625.831 1277.29 626.286 1278.2 626.742C1279.57 626.742 1280.93 626.742 1282.3 626.742C1285.95 627.198 1288.91 627.654 1291.19 628.109C1293.92 628.109 1296.43 627.882 1298.71 627.426C1301.9 626.97 1303.95 626.742 1304.86 626.742C1306.23 626.286 1307.59 625.831 1308.96 625.375C1313.97 624.008 1318.3 622.413 1321.95 620.59C1326.05 618.767 1330.84 615.805 1336.3 611.703C1339.04 609.424 1342.68 606.007 1347.24 601.449C1351.8 596.892 1355.67 592.79 1358.86 589.145C1363.42 582.764 1368.89 578.435 1375.27 576.156C1382.11 573.878 1388.94 574.789 1395.78 578.891C1401.7 582.536 1405.8 588.233 1408.08 595.98C1410.82 603.272 1409.9 610.108 1405.35 616.488C1392.13 634.262 1376.41 649.529 1358.18 662.289C1340.41 674.594 1319.9 681.202 1296.66 682.113C1277.97 683.025 1259.97 679.835 1242.65 672.543C1225.33 664.796 1210.07 654.542 1196.85 641.781C1180.45 625.831 1167.46 607.374 1157.89 586.41C1148.32 565.447 1143.08 544.027 1142.16 522.152C1138.06 518.962 1134.87 515.089 1132.59 510.531C1130.77 505.518 1130.09 500.505 1130.54 495.492C1131.45 490.479 1133.28 485.922 1136.01 481.82C1138.75 477.263 1142.85 474.301 1148.32 472.934C1153.33 456.072 1161.08 440.349 1171.56 425.766ZM1335.62 442.172C1330.61 435.792 1322.86 430.095 1312.38 425.082C1303.72 421.436 1293.47 419.613 1281.62 419.613C1270.22 419.613 1260.43 421.664 1252.22 425.766C1241.74 430.779 1232.4 437.842 1224.2 446.957C1215.99 455.616 1209.38 465.414 1204.37 476.352C1215.31 477.719 1226.25 479.086 1237.18 480.453C1248.12 481.82 1259.06 482.732 1270 483.188C1275.92 483.188 1281.85 483.188 1287.77 483.188C1293.69 483.188 1299.62 482.96 1305.54 482.504C1307.37 482.504 1308.96 482.504 1310.33 482.504C1312.15 482.048 1313.97 481.82 1315.8 481.82C1319.9 480.909 1322.86 480.453 1324.68 480.453C1326.96 479.997 1329.24 479.314 1331.52 478.402C1333.34 477.947 1335.62 477.263 1338.36 476.352C1340.63 475.44 1342 474.757 1342.46 474.301C1342.91 473.845 1343.6 473.389 1344.51 472.934L1346.56 464.73C1345.65 462.908 1344.96 461.312 1344.51 459.945C1344.51 458.122 1344.05 456.527 1343.14 455.16C1342.68 453.793 1341.55 451.742 1339.72 449.008C1338.36 446.273 1336.99 443.995 1335.62 442.172ZM1500.37 154.379C1508.57 154.379 1514.95 157.113 1519.51 162.582C1524.07 168.051 1526.8 174.431 1527.71 181.723C1532.27 225.017 1534.77 268.311 1535.23 311.605C1535.69 354.9 1535 398.194 1533.18 441.488C1531.81 484.783 1529.53 528.077 1526.34 571.371C1523.15 614.665 1519.96 657.732 1516.77 700.57C1515.86 708.318 1512.9 714.698 1507.89 719.711C1503.33 725.18 1497.18 727.914 1489.43 727.914C1482.59 727.914 1476.21 725.18 1470.29 719.711C1464.36 714.698 1461.63 708.318 1462.09 700.57C1465.28 657.732 1468.47 614.665 1471.66 571.371C1475.3 528.077 1477.81 484.783 1479.18 441.488C1481 398.194 1481.68 354.9 1481.23 311.605C1480.77 268.311 1478.26 225.017 1473.71 181.723C1472.8 174.431 1475.3 168.051 1481.23 162.582C1487.15 157.113 1493.53 154.379 1500.37 154.379ZM1647.34 154.379C1655.54 154.379 1661.92 157.113 1666.48 162.582C1671.04 168.051 1673.77 174.431 1674.68 181.723C1679.24 225.017 1681.75 268.311 1682.2 311.605C1682.66 354.9 1681.98 398.194 1680.15 441.488C1678.79 484.783 1676.51 528.077 1673.32 571.371C1670.13 614.665 1666.94 657.732 1663.75 700.57C1662.83 708.318 1659.87 714.698 1654.86 719.711C1650.3 725.18 1644.15 727.914 1636.4 727.914C1629.57 727.914 1623.19 725.18 1617.26 719.711C1611.34 714.698 1608.6 708.318 1609.06 700.57C1612.25 657.732 1615.44 614.665 1618.63 571.371C1622.27 528.077 1624.78 484.783 1626.15 441.488C1627.97 398.194 1628.65 354.9 1628.2 311.605C1627.74 268.311 1625.24 225.017 1620.68 181.723C1619.77 174.431 1622.27 168.051 1628.2 162.582C1634.12 157.113 1640.5 154.379 1647.34 154.379ZM1753.3 684.164C1756.94 662.289 1761.04 640.87 1765.6 619.906C1770.61 598.487 1774.26 576.84 1776.54 554.965C1778.36 533.546 1778.59 512.582 1777.22 492.074C1776.31 471.111 1777.68 449.919 1781.32 428.5C1782.24 421.208 1786.34 415.74 1793.63 412.094C1801.38 408.448 1808.44 407.536 1814.82 409.359C1822.57 411.638 1827.81 415.967 1830.54 422.348C1833.73 428.728 1834.87 435.564 1833.96 442.855C1832.14 453.337 1831.23 464.047 1831.23 474.984C1831.68 485.922 1832.14 496.859 1832.59 507.797C1832.59 528.76 1831.23 549.724 1828.49 570.688C1825.76 592.562 1822.11 613.982 1817.55 634.945C1813.45 655.909 1809.58 677.1 1805.93 698.52C1804.57 705.811 1800.24 711.28 1792.95 714.926C1785.65 718.572 1778.82 719.483 1772.44 717.66C1764.69 715.382 1759.22 711.052 1756.03 704.672C1752.84 698.292 1751.93 691.456 1753.3 684.164ZM1786.11 369.711C1782.92 368.799 1779.73 367.432 1776.54 365.609C1773.35 363.331 1771.07 360.596 1769.7 357.406C1768.34 353.76 1767.2 350.57 1766.29 347.836C1765.37 345.102 1764.92 341.911 1764.92 338.266C1764.92 334.164 1765.6 330.062 1766.97 325.961C1768.79 317.758 1772.44 311.833 1777.91 308.188C1779.73 305.453 1782.24 303.402 1785.43 302.035C1790.44 298.845 1796.14 297.25 1802.52 297.25C1808.9 296.794 1814.59 298.389 1819.61 302.035C1821.88 303.858 1824.16 305.909 1826.44 308.188C1828.72 310.01 1830.54 312.517 1831.91 315.707C1832.82 317.986 1833.73 320.492 1834.64 323.227C1836.01 325.961 1836.47 328.695 1836.01 331.43C1835.56 334.62 1835.1 337.582 1834.64 340.316C1834.19 343.051 1833.05 345.557 1831.23 347.836C1828.95 351.026 1827.12 353.305 1825.76 354.672C1824.39 356.039 1822.11 357.862 1818.92 360.141C1817.1 361.964 1814.36 363.331 1810.72 364.242C1801.15 369.711 1792.95 371.534 1786.11 369.711ZM1913.94 625.375C1913.94 605.779 1915.31 585.954 1918.04 565.902C1921.23 541.749 1924.42 517.823 1927.61 494.125C1930.8 469.971 1932.17 445.59 1931.71 420.98C1931.71 412.322 1934.45 405.714 1939.92 401.156C1945.39 396.599 1951.54 394.32 1958.38 394.32C1965.21 394.32 1971.59 396.599 1977.52 401.156C1983.44 405.714 1986.4 412.322 1986.4 420.98C2004.18 419.613 2021.04 418.93 2036.99 418.93C2055.22 419.385 2070.71 424.626 2083.47 434.652C2096.23 444.678 2105.8 458.122 2112.18 474.984C2117.65 490.479 2120.84 506.43 2121.75 522.836C2122.67 539.242 2123.35 555.648 2123.8 572.055C2124.26 595.297 2124.94 618.539 2125.86 641.781C2126.77 664.568 2127.22 687.582 2127.22 710.824C2127.22 719.939 2124.26 726.547 2118.34 730.648C2112.87 735.206 2106.71 737.484 2099.88 737.484C2093.5 737.484 2087.35 735.206 2081.42 730.648C2075.95 726.547 2073.22 719.939 2073.22 710.824C2073.22 688.949 2072.76 667.53 2071.85 646.566C2071.4 625.603 2070.71 604.184 2069.8 582.309C2068.89 570.46 2068.43 558.383 2068.43 546.078C2068.89 533.318 2067.98 521.697 2065.7 511.215C2064.33 504.835 2062.96 499.366 2061.6 494.809C2060.23 489.796 2057.72 485.01 2054.08 480.453C2053.17 478.63 2051.12 477.035 2047.93 475.668C2045.19 474.301 2042.68 473.617 2040.41 473.617C2033.57 473.617 2027.19 474.073 2021.27 474.984C2015.34 475.896 2009.19 477.263 2002.81 479.086C2000.07 479.997 1997.34 480.909 1994.61 481.82C1991.87 482.732 1989.36 483.871 1987.09 485.238C1982.53 501.645 1979.11 517.367 1976.83 532.406C1975.01 546.99 1973.19 561.801 1971.36 576.84C1970 587.777 1969.08 598.943 1968.63 610.336C1968.63 621.273 1968.17 632.211 1967.26 643.148C1966.81 654.086 1965.44 665.023 1963.16 675.961C1961.34 686.898 1957.92 697.38 1952.91 707.406C1948.8 715.154 1943.34 719.483 1936.5 720.395C1929.66 721.762 1923.28 720.622 1917.36 716.977C1911.89 713.786 1907.56 708.773 1904.37 701.938C1901.64 695.102 1902.09 687.81 1905.74 680.062C1909.84 671.859 1912.12 662.973 1912.57 653.402C1913.03 643.832 1913.49 634.49 1913.94 625.375ZM2224.98 291.781C2229.53 262.615 2239.79 235.727 2255.74 211.117C2272.14 186.508 2291.97 165.316 2315.21 147.543C2328.43 137.061 2342.33 130.453 2356.91 127.719C2371.49 124.984 2386.53 127.947 2402.03 136.605C2413.88 143.441 2425.73 150.733 2437.57 158.48C2449.88 166.228 2459.45 176.254 2466.29 188.559C2470.84 196.306 2471.75 203.598 2469.02 210.434C2466.29 216.814 2461.96 221.827 2456.03 225.473C2450.11 228.663 2443.5 229.802 2436.21 228.891C2429.37 227.979 2423.9 223.65 2419.8 215.902C2417.52 211.801 2414.33 208.383 2410.23 205.648C2406.13 202.458 2402.26 199.724 2398.61 197.445C2394.51 195.167 2389.95 192.204 2384.94 188.559C2379.92 184.913 2374.91 182.634 2369.9 181.723C2365.8 180.355 2361.7 180.811 2357.59 183.09C2353.49 184.913 2349.39 187.647 2345.29 191.293C2341.64 194.483 2338 198.129 2334.35 202.23C2331.16 205.876 2328.2 209.066 2325.46 211.801C2309.06 229.118 2296.53 247.803 2287.87 267.855C2279.66 287.908 2275.79 310.01 2276.25 334.164C2276.7 350.57 2278.07 366.977 2280.35 383.383C2293.56 382.471 2306.78 381.56 2320 380.648C2333.67 379.737 2347.11 378.826 2360.33 377.914C2368.08 377.003 2374.46 379.509 2379.47 385.434C2384.94 391.358 2387.67 397.966 2387.67 405.258C2387.67 413.005 2384.94 419.385 2379.47 424.398C2374.46 428.956 2368.08 431.462 2360.33 431.918C2348.48 432.829 2336.4 433.741 2324.1 434.652C2312.25 435.564 2300.4 436.475 2288.55 437.387C2289.92 445.134 2291.29 452.882 2292.65 460.629C2294.02 468.376 2295.39 476.124 2296.75 483.871C2302.22 516.228 2307.69 548.129 2313.16 579.574C2319.08 611.02 2323.41 643.148 2326.15 675.961C2327.06 683.708 2324.55 690.089 2318.63 695.102C2312.7 700.57 2306.1 703.305 2298.8 703.305C2291.06 703.305 2284.68 700.57 2279.66 695.102C2275.11 690.089 2272.37 683.708 2271.46 675.961C2268.73 639.503 2263.94 603.728 2257.11 568.637C2250.27 533.09 2243.89 497.543 2237.96 461.996C2237.05 458.35 2236.37 454.704 2235.91 451.059C2235.91 447.413 2235.46 443.767 2234.55 440.121C2221.33 441.033 2207.89 441.716 2194.21 442.172C2181 442.628 2167.55 442.855 2153.88 442.855C2145.22 442.855 2138.84 440.121 2134.74 434.652C2130.18 428.728 2127.91 422.348 2127.91 415.512C2127.91 408.676 2130.18 402.523 2134.74 397.055C2138.84 391.13 2145.22 388.168 2153.88 388.168C2178.04 388.168 2202.19 387.484 2226.34 386.117C2224.07 370.167 2222.7 354.444 2222.24 338.949C2221.79 323.454 2222.7 307.732 2224.98 291.781ZM2469.7 672.543C2454.21 665.707 2441.9 656.365 2432.79 644.516C2424.13 632.211 2417.98 618.767 2414.33 604.184C2411.14 589.6 2410.23 574.561 2411.6 559.066C2412.96 543.116 2416.15 527.849 2421.17 513.266C2425.27 501.872 2429.83 490.023 2434.84 477.719C2440.31 465.414 2446.69 454.021 2453.98 443.539C2461.27 433.057 2469.93 424.171 2479.96 416.879C2489.98 409.132 2501.83 404.118 2515.5 401.84C2529.63 399.561 2543.76 398.878 2557.89 399.789C2572.47 400.245 2586.83 401.612 2600.95 403.891C2607.33 404.802 2613.49 406.397 2619.41 408.676C2625.33 410.499 2631.26 412.549 2637.18 414.828C2637.64 407.992 2640.6 402.296 2646.07 397.738C2651.99 393.181 2658.15 390.902 2664.53 390.902C2672.27 390.902 2678.43 393.637 2682.98 399.105C2688 404.118 2690.96 410.271 2691.87 417.562C2694.15 438.526 2695.06 459.49 2694.61 480.453C2694.61 501.417 2693.92 522.38 2692.55 543.344C2691.64 564.307 2690.73 585.271 2689.82 606.234C2689.36 627.198 2689.59 648.161 2690.5 669.125C2690.96 677.784 2688.23 684.392 2682.3 688.949C2676.83 693.051 2670.68 695.102 2663.84 695.102C2657.01 695.102 2650.63 693.051 2644.7 688.949C2639.23 684.392 2636.27 677.784 2635.82 669.125C2609.84 680.062 2582.27 686.443 2553.1 688.266C2523.93 689.633 2496.14 684.392 2469.7 672.543ZM2474.49 524.203C2471.75 532.406 2469.25 541.749 2466.97 552.23C2464.69 562.712 2464.01 572.738 2464.92 582.309C2465.83 591.879 2468.79 600.766 2473.8 608.969C2478.82 616.716 2487.02 622.185 2498.41 625.375C2521.66 632.667 2544.9 634.717 2568.14 631.527C2591.84 628.337 2613.94 620.134 2634.45 606.918C2636.27 584.587 2637.64 562.94 2638.55 541.977C2639.92 521.013 2640.37 499.822 2639.92 478.402C2632.17 473.389 2624.2 469.06 2615.99 465.414C2608.24 461.312 2599.59 458.578 2590.02 457.211C2580.45 455.844 2570.19 454.932 2559.25 454.477C2548.77 453.565 2538.52 453.565 2528.49 454.477C2527.58 454.477 2525.07 455.16 2520.97 456.527C2517.33 457.439 2515.28 458.122 2514.82 458.578C2510.26 460.857 2506.16 464.503 2502.52 469.516C2496.59 477.719 2491.35 486.605 2486.79 496.176C2482.24 505.29 2478.13 514.633 2474.49 524.203ZM2765.02 625.375C2765.02 605.779 2766.38 585.954 2769.12 565.902C2772.31 541.749 2775.5 517.823 2778.69 494.125C2781.88 469.971 2783.24 445.59 2782.79 420.98C2782.79 412.322 2785.52 405.714 2790.99 401.156C2796.46 396.599 2802.61 394.32 2809.45 394.32C2816.29 394.32 2822.67 396.599 2828.59 401.156C2834.51 405.714 2837.48 412.322 2837.48 420.98C2855.25 419.613 2872.11 418.93 2888.06 418.93C2906.29 419.385 2921.79 424.626 2934.55 434.652C2947.31 444.678 2956.88 458.122 2963.26 474.984C2968.73 490.479 2971.92 506.43 2972.83 522.836C2973.74 539.242 2974.42 555.648 2974.88 572.055C2975.33 595.297 2976.02 618.539 2976.93 641.781C2977.84 664.568 2978.3 687.582 2978.3 710.824C2978.3 719.939 2975.33 726.547 2969.41 730.648C2963.94 735.206 2957.79 737.484 2950.95 737.484C2944.57 737.484 2938.42 735.206 2932.5 730.648C2927.03 726.547 2924.29 719.939 2924.29 710.824C2924.29 688.949 2923.84 667.53 2922.93 646.566C2922.47 625.603 2921.79 604.184 2920.88 582.309C2919.96 570.46 2919.51 558.383 2919.51 546.078C2919.96 533.318 2919.05 521.697 2916.77 511.215C2915.41 504.835 2914.04 499.366 2912.67 494.809C2911.3 489.796 2908.8 485.01 2905.15 480.453C2904.24 478.63 2902.19 477.035 2899 475.668C2896.27 474.301 2893.76 473.617 2891.48 473.617C2884.64 473.617 2878.26 474.073 2872.34 474.984C2866.42 475.896 2860.26 477.263 2853.88 479.086C2851.15 479.997 2848.41 480.909 2845.68 481.82C2842.95 482.732 2840.44 483.871 2838.16 485.238C2833.6 501.645 2830.18 517.367 2827.91 532.406C2826.08 546.99 2824.26 561.801 2822.44 576.84C2821.07 587.777 2820.16 598.943 2819.7 610.336C2819.7 621.273 2819.25 632.211 2818.34 643.148C2817.88 654.086 2816.51 665.023 2814.23 675.961C2812.41 686.898 2808.99 697.38 2803.98 707.406C2799.88 715.154 2794.41 719.483 2787.57 720.395C2780.74 721.762 2774.36 720.622 2768.43 716.977C2762.96 713.786 2758.64 708.773 2755.45 701.938C2752.71 695.102 2753.17 687.81 2756.81 680.062C2760.91 671.859 2763.19 662.973 2763.65 653.402C2764.1 643.832 2764.56 634.49 2765.02 625.375ZM3252.42 452.426C3261.08 452.426 3267.46 455.16 3271.56 460.629C3276.12 466.098 3278.39 472.25 3278.39 479.086C3278.39 485.922 3276.12 492.302 3271.56 498.227C3267.46 503.695 3261.08 506.43 3252.42 506.43C3241.48 506.885 3230.54 506.885 3219.61 506.43C3209.12 505.518 3198.64 504.607 3188.16 503.695C3188.62 539.698 3187.93 575.701 3186.11 611.703C3184.74 647.706 3181.1 683.48 3175.17 719.027C3174.26 726.775 3170.16 732.471 3162.87 736.117C3155.58 739.763 3148.51 740.447 3141.68 738.168C3133.93 735.889 3128.46 731.56 3125.27 725.18C3122.54 719.255 3121.85 712.419 3123.22 704.672C3128.69 670.036 3131.65 635.401 3132.11 600.766C3133.02 566.13 3133.02 531.267 3132.11 496.176C3114.79 493.441 3097.24 490.707 3079.47 487.973C3061.7 484.783 3044.15 482.048 3026.83 479.77C3019.08 478.858 3013.62 474.757 3010.43 467.465C3006.78 459.717 3005.87 452.654 3007.69 446.273C3009.97 438.526 3014.3 433.285 3020.68 430.551C3027.06 427.361 3033.9 426.221 3041.19 427.133C3056.23 429.411 3071.27 431.918 3086.3 434.652C3101.34 436.931 3116.61 439.21 3132.11 441.488C3131.65 439.21 3131.42 435.792 3131.42 431.234C3131.42 390.219 3131.19 349.659 3130.74 309.555C3130.74 269.451 3132.79 228.891 3136.89 187.875C3137.8 180.583 3140.54 174.203 3145.09 168.734C3150.11 163.266 3156.49 160.531 3164.23 160.531C3171.07 160.531 3177.45 163.266 3183.38 168.734C3189.76 174.203 3192.49 180.583 3191.58 187.875C3187.02 231.625 3184.74 275.147 3184.74 318.441C3185.2 361.28 3185.88 404.802 3186.79 449.008C3197.73 449.919 3208.67 450.831 3219.61 451.742C3230.54 452.198 3241.48 452.426 3252.42 452.426Z" fill="black"/>
<g clip-path="url(#clip0)">
<path d="M545.292 143.84V143.847C518.399 118.099 481.855 90.906 440.017 80.4543C473.493 55.9774 521.131 34.5074 580.505 42.6712C652.439 52.5492 701.066 108.962 729.141 154.343C648.76 122.704 581.9 132.945 545.292 143.84Z" fill="#DEDEDE"/>
<path d="M496.508 50.6533C539.179 69.8063 574.925 102.788 601.626 133.802C578.839 135.371 559.71 139.547 545.292 143.84V143.847C518.398 118.099 481.855 90.9059 440.017 80.4542C455.787 68.9202 474.703 58.0618 496.508 50.6533V50.6533Z" fill="#D1D1D1"/>
<path d="M359.329 84.2448C434.16 57.8795 502.151 102.911 545.292 144.224V144.217C589.279 131.129 676.898 118.919 779.22 179.24C922.249 263.558 971.915 426.057 900.323 861.26C894.622 895.884 861.794 919.111 828.175 911.681C827.627 911.558 827.079 911.427 826.524 911.296C796.435 904.106 776.544 874.835 780.266 843.523L800.812 670.536C800.812 670.536 672.472 748.47 519.331 638.673C392.542 720.768 246.831 596.713 222.022 446.126C193.357 272.114 232.583 128.906 359.329 84.2448V84.2448Z" fill="#EBEBEB"/>
<path d="M11.8845 454.174C52.2069 295.263 122.042 229.313 228.74 227.519C210.088 288.719 208.522 363.82 222.022 445.749C246.83 596.337 392.542 720.385 519.323 638.296C522.974 640.824 526.618 643.409 530.333 645.864C580.006 678.868 626.755 692.494 666.971 695.995C654.673 737.969 634.548 803.257 611.177 866.309C600.829 894.229 574.612 912.692 545.363 912.692H521.394C488.964 912.692 460.733 890.067 453.04 857.913L442.991 815.917H244.795L234.754 857.913C227.061 890.067 198.829 912.692 166.399 912.692H139.712C112.114 912.692 87.0424 896.248 75.6559 870.587C39.9308 790.075 -27.2851 608.539 11.8845 454.174V454.174Z" fill="#DADADA"/>
<path d="M11.8845 454.174C52.2069 295.263 122.042 229.313 228.74 227.519C228.036 229.822 227.402 232.19 226.748 234.536C149.213 255.286 95.8812 323.103 62.6185 454.174C23.4418 608.539 90.6648 790.075 126.39 870.587C136.111 892.493 155.817 907.637 178.54 911.617C174.583 912.321 170.527 912.692 166.399 912.692H139.712C112.121 912.692 87.0425 896.248 75.656 870.587C39.9309 790.075 -27.285 608.539 11.8845 454.174V454.174Z" fill="#D1D1D1"/>
<path d="M798.442 690.119C798.777 690.039 799.104 689.959 799.439 689.879C824.283 683.843 847.433 704.812 844.358 730.691L831.001 843.147C827.77 870.333 842.351 895.972 865.943 906.968C854.549 912.379 841.426 914.231 828.175 911.304C827.627 911.181 827.079 911.05 826.524 910.919C796.443 903.729 776.545 874.458 780.267 843.147L798.442 690.119Z" fill="#D1D1D1"/>
<path d="M359.329 83.868C383.96 75.1885 407.843 74.2806 430.345 78.3916C423.649 79.6699 416.888 81.4639 410.063 83.868C283.317 128.529 244.091 271.738 272.756 445.749C290.448 553.128 369.62 646.997 459.566 662.264C350.298 681.309 242.988 573.007 222.022 445.749C193.357 271.738 232.583 128.529 359.329 83.868V83.868Z" fill="#DEDEDE"/>
<path d="M222.022 445.749C246.831 596.336 392.542 720.384 519.323 638.296C522.974 640.823 526.618 643.409 530.333 645.864C580.006 678.868 626.755 692.494 666.971 695.995C662.608 710.877 657.264 728.686 651.143 748.282C611.583 745.958 563.524 731.635 509.439 692.857C382.65 774.953 213.525 642.719 188.717 492.132C171.637 388.435 178.668 295.677 213.959 228.195C218.806 227.824 223.73 227.599 228.74 227.519C210.088 288.719 208.522 363.82 222.022 445.749V445.749Z" fill="#D1D1D1"/>
<path d="M778.535 465.753C793.375 465.753 805.003 477.614 805.003 492.762C805.003 507.915 793.375 519.781 778.535 519.781C763.687 519.781 752.066 507.915 752.066 492.762C752.066 477.614 763.694 465.753 778.535 465.753Z" fill="#808080"/>
</g>
<defs>
<clipPath id="clip0">
<rect width="932.781" height="952" transform="matrix(-1 0 0 1 932.781 0)" fill="white"/>
</clipPath>
</defs>
</svg>
